<mxfile host="Electron" agent="Mozilla/5.0 (Macintosh; Intel Mac OS X 10_15_7) AppleWebKit/537.36 (KHTML, like Gecko) draw.io/25.0.2 Chrome/128.0.6613.186 Electron/32.2.5 Safari/537.36" version="25.0.2">
  <diagram name="Page-1" id="-H_mtQnk-PTXWXPvYvuk">
    <mxGraphModel dx="2759" dy="1123" grid="1" gridSize="10" guides="1" tooltips="1" connect="1" arrows="1" fold="1" page="1" pageScale="1" pageWidth="1169" pageHeight="827" math="0" shadow="0">
      <root>
        <mxCell id="0" />
        <mxCell id="1" parent="0" />
        <mxCell id="CAxSMjVLtJFGLqpBETSL-25" style="edgeStyle=orthogonalEdgeStyle;rounded=0;orthogonalLoop=1;jettySize=auto;html=1;entryX=0;entryY=0.75;entryDx=0;entryDy=0;exitX=1;exitY=0.25;exitDx=0;exitDy=0;" edge="1" parent="1" source="zA23MoTUsTF4_91t8viU-3" target="CAxSMjVLtJFGLqpBETSL-3">
          <mxGeometry relative="1" as="geometry" />
        </mxCell>
        <mxCell id="CAxSMjVLtJFGLqpBETSL-30" style="edgeStyle=orthogonalEdgeStyle;rounded=0;orthogonalLoop=1;jettySize=auto;html=1;exitX=1;exitY=0;exitDx=0;exitDy=0;entryX=1;entryY=0.5;entryDx=0;entryDy=0;fillColor=#f8cecc;strokeColor=#b85450;" edge="1" parent="1" source="zA23MoTUsTF4_91t8viU-3" target="CAxSMjVLtJFGLqpBETSL-28">
          <mxGeometry relative="1" as="geometry">
            <mxPoint x="460" y="270" as="targetPoint" />
            <Array as="points">
              <mxPoint x="480" y="440" />
              <mxPoint x="480" y="130" />
            </Array>
          </mxGeometry>
        </mxCell>
        <mxCell id="zA23MoTUsTF4_91t8viU-3" value="pymongo-api03" style="rounded=1;whiteSpace=wrap;html=1;" parent="1" vertex="1">
          <mxGeometry x="270" y="440" width="120" height="60" as="geometry" />
        </mxCell>
        <mxCell id="zA23MoTUsTF4_91t8viU-4" style="edgeStyle=orthogonalEdgeStyle;rounded=0;orthogonalLoop=1;jettySize=auto;html=1;exitX=1;exitY=0.5;exitDx=0;exitDy=0;entryX=0.03;entryY=0.733;entryDx=0;entryDy=0;entryPerimeter=0;fillColor=#d5e8d4;strokeColor=#82b366;" parent="1" source="zA23MoTUsTF4_91t8viU-3" target="CAxSMjVLtJFGLqpBETSL-23" edge="1">
          <mxGeometry relative="1" as="geometry">
            <mxPoint x="560" y="470" as="targetPoint" />
            <Array as="points">
              <mxPoint x="410" y="470" />
              <mxPoint x="410" y="669" />
              <mxPoint x="557" y="669" />
            </Array>
          </mxGeometry>
        </mxCell>
        <mxCell id="CAxSMjVLtJFGLqpBETSL-10" style="edgeStyle=orthogonalEdgeStyle;rounded=0;orthogonalLoop=1;jettySize=auto;html=1;entryX=1.004;entryY=0.116;entryDx=0;entryDy=0;exitX=0.005;exitY=0.247;exitDx=0;exitDy=0;exitPerimeter=0;entryPerimeter=0;fillColor=#f8cecc;strokeColor=#b85450;" edge="1" parent="1" source="CAxSMjVLtJFGLqpBETSL-1" target="CAxSMjVLtJFGLqpBETSL-8">
          <mxGeometry relative="1" as="geometry">
            <Array as="points">
              <mxPoint x="920" y="170" />
              <mxPoint x="920" y="177" />
            </Array>
          </mxGeometry>
        </mxCell>
        <mxCell id="CAxSMjVLtJFGLqpBETSL-18" style="edgeStyle=orthogonalEdgeStyle;rounded=0;orthogonalLoop=1;jettySize=auto;html=1;" edge="1" parent="1" source="CAxSMjVLtJFGLqpBETSL-1" target="CAxSMjVLtJFGLqpBETSL-13">
          <mxGeometry relative="1" as="geometry" />
        </mxCell>
        <mxCell id="CAxSMjVLtJFGLqpBETSL-1" value="MongoDB&lt;div&gt;shard01-01&lt;/div&gt;" style="shape=cylinder3;whiteSpace=wrap;html=1;boundedLbl=1;backgroundOutline=1;size=15;" vertex="1" parent="1">
          <mxGeometry x="890" y="150" width="70" height="80" as="geometry" />
        </mxCell>
        <mxCell id="CAxSMjVLtJFGLqpBETSL-11" style="edgeStyle=orthogonalEdgeStyle;rounded=0;orthogonalLoop=1;jettySize=auto;html=1;entryX=0.99;entryY=0.852;entryDx=0;entryDy=0;exitX=0.855;exitY=0;exitDx=0;exitDy=4.35;exitPerimeter=0;entryPerimeter=0;fillColor=#f8cecc;strokeColor=#b85450;" edge="1" parent="1" source="CAxSMjVLtJFGLqpBETSL-2" target="CAxSMjVLtJFGLqpBETSL-8">
          <mxGeometry relative="1" as="geometry">
            <mxPoint x="790" y="280" as="targetPoint" />
            <Array as="points">
              <mxPoint x="941" y="460" />
              <mxPoint x="870" y="460" />
              <mxPoint x="870" y="220" />
              <mxPoint x="765" y="220" />
              <mxPoint x="765" y="221" />
            </Array>
          </mxGeometry>
        </mxCell>
        <mxCell id="CAxSMjVLtJFGLqpBETSL-22" style="edgeStyle=orthogonalEdgeStyle;rounded=0;orthogonalLoop=1;jettySize=auto;html=1;" edge="1" parent="1" source="CAxSMjVLtJFGLqpBETSL-2" target="CAxSMjVLtJFGLqpBETSL-20">
          <mxGeometry relative="1" as="geometry" />
        </mxCell>
        <mxCell id="CAxSMjVLtJFGLqpBETSL-2" value="MongoDB&lt;div&gt;shard02-01&lt;/div&gt;" style="shape=cylinder3;whiteSpace=wrap;html=1;boundedLbl=1;backgroundOutline=1;size=15;" vertex="1" parent="1">
          <mxGeometry x="890" y="524" width="70" height="80" as="geometry" />
        </mxCell>
        <mxCell id="CAxSMjVLtJFGLqpBETSL-9" style="edgeStyle=orthogonalEdgeStyle;rounded=0;orthogonalLoop=1;jettySize=auto;html=1;fillColor=#f8cecc;strokeColor=#b85450;" edge="1" parent="1" source="CAxSMjVLtJFGLqpBETSL-3" target="CAxSMjVLtJFGLqpBETSL-8">
          <mxGeometry relative="1" as="geometry" />
        </mxCell>
        <mxCell id="CAxSMjVLtJFGLqpBETSL-3" value="MongoDB&lt;br&gt;router01" style="rounded=1;whiteSpace=wrap;html=1;" vertex="1" parent="1">
          <mxGeometry x="645" y="330" width="120" height="60" as="geometry" />
        </mxCell>
        <mxCell id="CAxSMjVLtJFGLqpBETSL-5" style="edgeStyle=orthogonalEdgeStyle;rounded=0;orthogonalLoop=1;jettySize=auto;html=1;entryX=0;entryY=0;entryDx=0;entryDy=52.5;entryPerimeter=0;" edge="1" parent="1">
          <mxGeometry relative="1" as="geometry">
            <mxPoint x="765" y="357" as="sourcePoint" />
            <mxPoint x="890" y="199.5" as="targetPoint" />
            <Array as="points">
              <mxPoint x="830" y="357" />
              <mxPoint x="830" y="200" />
            </Array>
          </mxGeometry>
        </mxCell>
        <mxCell id="CAxSMjVLtJFGLqpBETSL-7" style="edgeStyle=orthogonalEdgeStyle;rounded=0;orthogonalLoop=1;jettySize=auto;html=1;entryX=0;entryY=0.5;entryDx=0;entryDy=0;entryPerimeter=0;exitX=0.989;exitY=0.632;exitDx=0;exitDy=0;exitPerimeter=0;" edge="1" parent="1" source="CAxSMjVLtJFGLqpBETSL-3" target="CAxSMjVLtJFGLqpBETSL-2">
          <mxGeometry relative="1" as="geometry">
            <mxPoint x="765" y="430.0000000000002" as="sourcePoint" />
            <Array as="points">
              <mxPoint x="765" y="368" />
              <mxPoint x="765" y="370" />
              <mxPoint x="830" y="370" />
              <mxPoint x="830" y="564" />
            </Array>
          </mxGeometry>
        </mxCell>
        <mxCell id="CAxSMjVLtJFGLqpBETSL-8" value="&lt;div&gt;MongoDB&lt;/div&gt;configSrv01" style="rounded=1;whiteSpace=wrap;html=1;" vertex="1" parent="1">
          <mxGeometry x="645" y="170" width="120" height="60" as="geometry" />
        </mxCell>
        <mxCell id="CAxSMjVLtJFGLqpBETSL-12" value="MongoDB&lt;div&gt;shard01&lt;span style=&quot;background-color: initial;&quot;&gt;-02&lt;/span&gt;&lt;/div&gt;" style="shape=cylinder3;whiteSpace=wrap;html=1;boundedLbl=1;backgroundOutline=1;size=15;" vertex="1" parent="1">
          <mxGeometry x="1050" y="80" width="70" height="80" as="geometry" />
        </mxCell>
        <mxCell id="CAxSMjVLtJFGLqpBETSL-13" value="MongoDB&lt;div&gt;shard01&lt;span style=&quot;background-color: initial;&quot;&gt;-03&lt;/span&gt;&lt;/div&gt;" style="shape=cylinder3;whiteSpace=wrap;html=1;boundedLbl=1;backgroundOutline=1;size=15;" vertex="1" parent="1">
          <mxGeometry x="1050" y="190" width="70" height="80" as="geometry" />
        </mxCell>
        <mxCell id="CAxSMjVLtJFGLqpBETSL-17" style="edgeStyle=orthogonalEdgeStyle;rounded=0;orthogonalLoop=1;jettySize=auto;html=1;entryX=0.057;entryY=0.753;entryDx=0;entryDy=0;entryPerimeter=0;" edge="1" parent="1" source="CAxSMjVLtJFGLqpBETSL-1" target="CAxSMjVLtJFGLqpBETSL-12">
          <mxGeometry relative="1" as="geometry" />
        </mxCell>
        <mxCell id="CAxSMjVLtJFGLqpBETSL-19" value="MongoDB&lt;div&gt;shard02&lt;span style=&quot;background-color: initial;&quot;&gt;-02&lt;/span&gt;&lt;/div&gt;" style="shape=cylinder3;whiteSpace=wrap;html=1;boundedLbl=1;backgroundOutline=1;size=15;" vertex="1" parent="1">
          <mxGeometry x="1050" y="469" width="70" height="80" as="geometry" />
        </mxCell>
        <mxCell id="CAxSMjVLtJFGLqpBETSL-20" value="MongoDB&lt;div&gt;shard02&lt;span style=&quot;background-color: initial;&quot;&gt;-03&lt;/span&gt;&lt;/div&gt;" style="shape=cylinder3;whiteSpace=wrap;html=1;boundedLbl=1;backgroundOutline=1;size=15;" vertex="1" parent="1">
          <mxGeometry x="1050" y="579" width="70" height="80" as="geometry" />
        </mxCell>
        <mxCell id="CAxSMjVLtJFGLqpBETSL-21" style="edgeStyle=orthogonalEdgeStyle;rounded=0;orthogonalLoop=1;jettySize=auto;html=1;entryX=0;entryY=0;entryDx=0;entryDy=52.5;entryPerimeter=0;" edge="1" parent="1" source="CAxSMjVLtJFGLqpBETSL-2" target="CAxSMjVLtJFGLqpBETSL-19">
          <mxGeometry relative="1" as="geometry" />
        </mxCell>
        <mxCell id="CAxSMjVLtJFGLqpBETSL-24" style="edgeStyle=orthogonalEdgeStyle;rounded=0;orthogonalLoop=1;jettySize=auto;html=1;" edge="1" parent="1" source="CAxSMjVLtJFGLqpBETSL-23" target="CAxSMjVLtJFGLqpBETSL-3">
          <mxGeometry relative="1" as="geometry" />
        </mxCell>
        <mxCell id="CAxSMjVLtJFGLqpBETSL-23" value="redis01" style="shape=cylinder3;whiteSpace=wrap;html=1;boundedLbl=1;backgroundOutline=1;size=15;" vertex="1" parent="1">
          <mxGeometry x="555" y="610" width="60" height="80" as="geometry" />
        </mxCell>
        <mxCell id="CAxSMjVLtJFGLqpBETSL-31" style="edgeStyle=orthogonalEdgeStyle;rounded=0;orthogonalLoop=1;jettySize=auto;html=1;exitX=1;exitY=0;exitDx=0;exitDy=0;entryX=1;entryY=0.5;entryDx=0;entryDy=0;fillColor=#f8cecc;strokeColor=#b85450;" edge="1" parent="1" source="CAxSMjVLtJFGLqpBETSL-26" target="CAxSMjVLtJFGLqpBETSL-28">
          <mxGeometry relative="1" as="geometry">
            <Array as="points">
              <mxPoint x="480" y="330" />
              <mxPoint x="480" y="130" />
            </Array>
          </mxGeometry>
        </mxCell>
        <mxCell id="CAxSMjVLtJFGLqpBETSL-41" style="edgeStyle=orthogonalEdgeStyle;rounded=0;orthogonalLoop=1;jettySize=auto;html=1;exitX=1;exitY=0.5;exitDx=0;exitDy=0;entryX=0;entryY=0.5;entryDx=0;entryDy=0;" edge="1" parent="1" source="CAxSMjVLtJFGLqpBETSL-26" target="CAxSMjVLtJFGLqpBETSL-3">
          <mxGeometry relative="1" as="geometry" />
        </mxCell>
        <mxCell id="CAxSMjVLtJFGLqpBETSL-26" value="pymongo-api02" style="rounded=1;whiteSpace=wrap;html=1;" vertex="1" parent="1">
          <mxGeometry x="270" y="330" width="120" height="60" as="geometry" />
        </mxCell>
        <mxCell id="CAxSMjVLtJFGLqpBETSL-32" style="edgeStyle=orthogonalEdgeStyle;rounded=0;orthogonalLoop=1;jettySize=auto;html=1;exitX=1;exitY=0;exitDx=0;exitDy=0;entryX=1;entryY=0.5;entryDx=0;entryDy=0;fillColor=#f8cecc;strokeColor=#b85450;" edge="1" parent="1">
          <mxGeometry relative="1" as="geometry">
            <mxPoint x="390.0000000000001" y="219.99" as="sourcePoint" />
            <mxPoint x="169.99999999999994" y="129.99" as="targetPoint" />
            <Array as="points">
              <mxPoint x="480" y="220" />
              <mxPoint x="480" y="130" />
            </Array>
          </mxGeometry>
        </mxCell>
        <mxCell id="CAxSMjVLtJFGLqpBETSL-42" style="edgeStyle=orthogonalEdgeStyle;rounded=0;orthogonalLoop=1;jettySize=auto;html=1;exitX=1;exitY=0.5;exitDx=0;exitDy=0;entryX=0;entryY=0.25;entryDx=0;entryDy=0;" edge="1" parent="1" source="CAxSMjVLtJFGLqpBETSL-27" target="CAxSMjVLtJFGLqpBETSL-3">
          <mxGeometry relative="1" as="geometry" />
        </mxCell>
        <mxCell id="CAxSMjVLtJFGLqpBETSL-27" value="pymongo-api01" style="rounded=1;whiteSpace=wrap;html=1;" vertex="1" parent="1">
          <mxGeometry x="270" y="220" width="120" height="60" as="geometry" />
        </mxCell>
        <mxCell id="CAxSMjVLtJFGLqpBETSL-28" value="consul01" style="rounded=1;whiteSpace=wrap;html=1;" vertex="1" parent="1">
          <mxGeometry x="50" y="100" width="120" height="60" as="geometry" />
        </mxCell>
        <mxCell id="CAxSMjVLtJFGLqpBETSL-34" style="edgeStyle=orthogonalEdgeStyle;rounded=0;orthogonalLoop=1;jettySize=auto;html=1;" edge="1" parent="1" source="CAxSMjVLtJFGLqpBETSL-33" target="CAxSMjVLtJFGLqpBETSL-27">
          <mxGeometry relative="1" as="geometry" />
        </mxCell>
        <mxCell id="CAxSMjVLtJFGLqpBETSL-35" style="edgeStyle=orthogonalEdgeStyle;rounded=0;orthogonalLoop=1;jettySize=auto;html=1;exitX=1;exitY=0.5;exitDx=0;exitDy=0;" edge="1" parent="1" source="CAxSMjVLtJFGLqpBETSL-33" target="CAxSMjVLtJFGLqpBETSL-26">
          <mxGeometry relative="1" as="geometry" />
        </mxCell>
        <mxCell id="CAxSMjVLtJFGLqpBETSL-36" style="edgeStyle=orthogonalEdgeStyle;rounded=0;orthogonalLoop=1;jettySize=auto;html=1;exitX=1;exitY=0.5;exitDx=0;exitDy=0;entryX=0;entryY=0.5;entryDx=0;entryDy=0;" edge="1" parent="1" source="CAxSMjVLtJFGLqpBETSL-33" target="zA23MoTUsTF4_91t8viU-3">
          <mxGeometry relative="1" as="geometry" />
        </mxCell>
        <mxCell id="CAxSMjVLtJFGLqpBETSL-37" style="edgeStyle=orthogonalEdgeStyle;rounded=0;orthogonalLoop=1;jettySize=auto;html=1;entryX=0.5;entryY=1;entryDx=0;entryDy=0;fillColor=#f8cecc;strokeColor=#b85450;" edge="1" parent="1" source="CAxSMjVLtJFGLqpBETSL-33" target="CAxSMjVLtJFGLqpBETSL-28">
          <mxGeometry relative="1" as="geometry" />
        </mxCell>
        <mxCell id="CAxSMjVLtJFGLqpBETSL-33" value="API Gateway" style="rounded=1;whiteSpace=wrap;html=1;" vertex="1" parent="1">
          <mxGeometry x="50" y="225" width="120" height="270" as="geometry" />
        </mxCell>
        <mxCell id="CAxSMjVLtJFGLqpBETSL-47" style="edgeStyle=orthogonalEdgeStyle;rounded=0;orthogonalLoop=1;jettySize=auto;html=1;fillColor=#d5e8d4;strokeColor=#82b366;" edge="1" parent="1" source="CAxSMjVLtJFGLqpBETSL-38" target="CAxSMjVLtJFGLqpBETSL-45">
          <mxGeometry relative="1" as="geometry" />
        </mxCell>
        <mxCell id="CAxSMjVLtJFGLqpBETSL-48" style="edgeStyle=orthogonalEdgeStyle;rounded=0;orthogonalLoop=1;jettySize=auto;html=1;fillColor=#d5e8d4;strokeColor=#82b366;" edge="1" parent="1" source="CAxSMjVLtJFGLqpBETSL-38" target="CAxSMjVLtJFGLqpBETSL-46">
          <mxGeometry relative="1" as="geometry">
            <Array as="points">
              <mxPoint x="-150" y="560" />
              <mxPoint y="560" />
            </Array>
          </mxGeometry>
        </mxCell>
        <mxCell id="CAxSMjVLtJFGLqpBETSL-38" value="Site/API request" style="rounded=1;whiteSpace=wrap;html=1;" vertex="1" parent="1">
          <mxGeometry x="-210" y="330" width="120" height="60" as="geometry" />
        </mxCell>
        <mxCell id="CAxSMjVLtJFGLqpBETSL-39" style="edgeStyle=orthogonalEdgeStyle;rounded=0;orthogonalLoop=1;jettySize=auto;html=1;exitX=1;exitY=0.5;exitDx=0;exitDy=0;" edge="1" parent="1" source="CAxSMjVLtJFGLqpBETSL-38">
          <mxGeometry relative="1" as="geometry">
            <mxPoint x="50" y="360" as="targetPoint" />
          </mxGeometry>
        </mxCell>
        <mxCell id="CAxSMjVLtJFGLqpBETSL-40" style="edgeStyle=orthogonalEdgeStyle;rounded=0;orthogonalLoop=1;jettySize=auto;html=1;exitX=1;exitY=1;exitDx=0;exitDy=0;entryX=0;entryY=0.5;entryDx=0;entryDy=0;entryPerimeter=0;fillColor=#d5e8d4;strokeColor=#82b366;" edge="1" parent="1" source="CAxSMjVLtJFGLqpBETSL-26" target="CAxSMjVLtJFGLqpBETSL-23">
          <mxGeometry relative="1" as="geometry">
            <Array as="points">
              <mxPoint x="430" y="390" />
              <mxPoint x="430" y="650" />
            </Array>
          </mxGeometry>
        </mxCell>
        <mxCell id="CAxSMjVLtJFGLqpBETSL-44" style="edgeStyle=orthogonalEdgeStyle;rounded=0;orthogonalLoop=1;jettySize=auto;html=1;exitX=1;exitY=1;exitDx=0;exitDy=0;entryX=0;entryY=0;entryDx=0;entryDy=15;entryPerimeter=0;fillColor=#d5e8d4;strokeColor=#82b366;" edge="1" parent="1" source="CAxSMjVLtJFGLqpBETSL-27" target="CAxSMjVLtJFGLqpBETSL-23">
          <mxGeometry relative="1" as="geometry">
            <Array as="points">
              <mxPoint x="450" y="280" />
              <mxPoint x="450" y="625" />
            </Array>
          </mxGeometry>
        </mxCell>
        <mxCell id="CAxSMjVLtJFGLqpBETSL-45" value="CDN01&lt;br&gt;Asia" style="rounded=1;whiteSpace=wrap;html=1;" vertex="1" parent="1">
          <mxGeometry x="-210" y="630" width="120" height="60" as="geometry" />
        </mxCell>
        <mxCell id="CAxSMjVLtJFGLqpBETSL-46" value="CDN02&lt;br&gt;Europe" style="rounded=1;whiteSpace=wrap;html=1;" vertex="1" parent="1">
          <mxGeometry x="-60" y="630" width="120" height="60" as="geometry" />
        </mxCell>
        <mxCell id="CAxSMjVLtJFGLqpBETSL-49" style="edgeStyle=orthogonalEdgeStyle;rounded=0;orthogonalLoop=1;jettySize=auto;html=1;entryX=0.408;entryY=0.994;entryDx=0;entryDy=0;entryPerimeter=0;exitX=0.5;exitY=1;exitDx=0;exitDy=0;" edge="1" parent="1" source="CAxSMjVLtJFGLqpBETSL-46" target="CAxSMjVLtJFGLqpBETSL-33">
          <mxGeometry relative="1" as="geometry" />
        </mxCell>
        <mxCell id="CAxSMjVLtJFGLqpBETSL-50" style="edgeStyle=orthogonalEdgeStyle;rounded=0;orthogonalLoop=1;jettySize=auto;html=1;entryX=0.683;entryY=0.986;entryDx=0;entryDy=0;entryPerimeter=0;" edge="1" parent="1" source="CAxSMjVLtJFGLqpBETSL-45" target="CAxSMjVLtJFGLqpBETSL-33">
          <mxGeometry relative="1" as="geometry">
            <Array as="points">
              <mxPoint x="-150" y="730" />
              <mxPoint x="132" y="730" />
            </Array>
          </mxGeometry>
        </mxCell>
        <mxCell id="CAxSMjVLtJFGLqpBETSL-51" value="" style="endArrow=classic;html=1;rounded=0;" edge="1" parent="1">
          <mxGeometry width="50" height="50" relative="1" as="geometry">
            <mxPoint x="-160" y="800" as="sourcePoint" />
            <mxPoint x="-80" y="800" as="targetPoint" />
          </mxGeometry>
        </mxCell>
        <mxCell id="CAxSMjVLtJFGLqpBETSL-52" value="" style="endArrow=classic;html=1;rounded=0;fillColor=#d5e8d4;strokeColor=#82b366;" edge="1" parent="1">
          <mxGeometry width="50" height="50" relative="1" as="geometry">
            <mxPoint x="-160" y="830" as="sourcePoint" />
            <mxPoint x="-80" y="830" as="targetPoint" />
          </mxGeometry>
        </mxCell>
        <mxCell id="CAxSMjVLtJFGLqpBETSL-53" value="" style="endArrow=classic;html=1;rounded=0;fillColor=#f8cecc;strokeColor=#b85450;" edge="1" parent="1">
          <mxGeometry width="50" height="50" relative="1" as="geometry">
            <mxPoint x="-160" y="860" as="sourcePoint" />
            <mxPoint x="-80" y="860.0000000000001" as="targetPoint" />
          </mxGeometry>
        </mxCell>
        <mxCell id="CAxSMjVLtJFGLqpBETSL-56" value="Запрос и передача данных" style="text;html=1;align=left;verticalAlign=middle;whiteSpace=wrap;rounded=0;" vertex="1" parent="1">
          <mxGeometry x="-70" y="780" width="170" height="30" as="geometry" />
        </mxCell>
        <mxCell id="CAxSMjVLtJFGLqpBETSL-57" value="Запрос и передача кэшированной информации" style="text;html=1;align=left;verticalAlign=middle;whiteSpace=wrap;rounded=0;" vertex="1" parent="1">
          <mxGeometry x="-70" y="810" width="300" height="30" as="geometry" />
        </mxCell>
        <mxCell id="CAxSMjVLtJFGLqpBETSL-58" value="Запрос и передача сервисной информации" style="text;html=1;align=left;verticalAlign=middle;whiteSpace=wrap;rounded=0;" vertex="1" parent="1">
          <mxGeometry x="-70" y="840" width="300" height="30" as="geometry" />
        </mxCell>
      </root>
    </mxGraphModel>
  </diagram>
</mxfile>
